<svg width="73" height="29" viewBox="0 0 73 29" fill="none" xmlns="http://www.w3.org/2000/svg">
<mask id="path-1-inside-1_145_708" fill="white">
<path d="M67.3125 0.75C70.4538 0.750213 72.9999 3.29711 73 6.43848V22.5557C73 25.6971 70.4539 28.2439 67.3125 28.2441H5.68848C2.54689 28.2441 3.52873e-06 25.6972 0 22.5557V6.43848C0.000108377 3.29698 2.54696 0.75 5.68848 0.75H67.3125ZM15.8945 4.53809C14.2148 4.53814 13.1068 5.11164 11.999 6.07812L6.28027 11.126C5.17253 12.0929 4.74322 12.9881 4.74316 14.3848C4.74316 15.7816 5.17246 16.6412 6.28027 17.6436L11.999 22.6924C13.1067 23.6951 14.2149 24.2314 15.8945 24.2314H34.7676V20.293H11.6768C10.2473 20.2928 9.03223 19.1474 9.03223 17.7148V11.0547C9.03223 9.62266 10.2468 8.47673 11.6768 8.47656H34.7676V4.53809H15.8945ZM36.3428 24.2314H40.6318V12.2012L43.5986 14.8145C44.7064 15.7814 45.8145 16.3544 47.4941 16.3545H62.0781V24.2314H66.3672V4.53809H62.0781V12.416H43.2764C41.8472 12.4158 40.6321 11.2701 40.6318 9.83789V4.53809H36.3428V24.2314Z"/>
</mask>
<path d="M67.3125 0.75L67.3126 -0.278169H67.3125V0.75ZM73 6.43848L74.0282 6.43848L74.0282 6.43844L73 6.43848ZM73 22.5557L74.0282 22.5557V22.5557H73ZM67.3125 28.2441L67.3125 29.2723L67.3126 29.2723L67.3125 28.2441ZM0 22.5557L-1.02817 22.5557L-1.02817 22.5557L0 22.5557ZM0 6.43848L-1.02817 6.43844V6.43848H0ZM15.8945 4.53809L15.8945 3.50992L15.8945 3.50992L15.8945 4.53809ZM11.999 6.07812L11.3231 5.30337L11.3186 5.30729L11.999 6.07812ZM6.28027 11.126L6.95642 11.9006L6.96068 11.8968L6.28027 11.126ZM4.74316 14.3848L3.715 14.3847V14.3848H4.74316ZM6.28027 17.6436L5.59039 18.406L5.5998 18.4143L6.28027 17.6436ZM11.999 22.6924L12.6891 21.9301L12.6795 21.9216L11.999 22.6924ZM15.8945 24.2314L15.8945 25.2596H15.8945V24.2314ZM34.7676 24.2314V25.2596H35.7957V24.2314H34.7676ZM34.7676 20.293H35.7957V19.2648H34.7676V20.293ZM11.6768 20.293L11.6766 21.3211H11.6768V20.293ZM11.6768 8.47656L11.6768 7.44839L11.6766 7.44839L11.6768 8.47656ZM34.7676 8.47656V9.50473H35.7957V8.47656H34.7676ZM34.7676 4.53809H35.7957V3.50992H34.7676V4.53809ZM36.3428 24.2314H35.3146V25.2596H36.3428V24.2314ZM40.6318 24.2314V25.2596H41.66V24.2314H40.6318ZM40.6318 12.2012L41.3114 11.4296L39.6037 9.92536V12.2012H40.6318ZM43.5986 14.8145L42.919 15.586L42.9225 15.589L43.5986 14.8145ZM47.4941 16.3545L47.4941 17.3827H47.4941V16.3545ZM62.0781 16.3545H63.1063V15.3263H62.0781V16.3545ZM62.0781 24.2314H61.05V25.2596H62.0781V24.2314ZM66.3672 24.2314V25.2596H67.3954V24.2314H66.3672ZM66.3672 4.53809H67.3954V3.50992H66.3672V4.53809ZM62.0781 4.53809V3.50992H61.05V4.53809H62.0781ZM62.0781 12.416V13.4442H63.1063V12.416H62.0781ZM43.2764 12.416L43.2762 13.4442H43.2764V12.416ZM40.6318 9.83789L39.6037 9.83789L39.6037 9.83808L40.6318 9.83789ZM40.6318 4.53809H41.66V3.50992H40.6318V4.53809ZM36.3428 4.53809V3.50992H35.3146V4.53809H36.3428ZM67.3125 0.75L67.3124 1.77817C69.8858 1.77834 71.9717 3.86477 71.9718 6.43851L73 6.43848L74.0282 6.43844C74.028 2.72946 71.0219 -0.277917 67.3126 -0.278169L67.3125 0.75ZM73 6.43848H71.9718V22.5557H73H74.0282V6.43848H73ZM73 22.5557L71.9718 22.5557C71.9718 25.1294 69.8859 27.2158 67.3124 27.216L67.3125 28.2441L67.3126 29.2723C71.0219 29.2721 74.0282 26.2648 74.0282 22.5557L73 22.5557ZM67.3125 28.2441V27.216H5.68848V28.2441V29.2723H67.3125V28.2441ZM5.68848 28.2441V27.216C3.11474 27.216 1.02817 25.1294 1.02817 22.5557L0 22.5557L-1.02817 22.5557C-1.02816 26.2651 1.97905 29.2723 5.68848 29.2723V28.2441ZM0 22.5557H1.02817V6.43848H0H-1.02817V22.5557H0ZM0 6.43848L1.02817 6.43851C1.02826 3.8648 3.11483 1.77817 5.68848 1.77817V0.75V-0.278169C1.97908 -0.278169 -1.02804 2.72917 -1.02817 6.43844L0 6.43848ZM5.68848 0.75V1.77817H67.3125V0.75V-0.278169H5.68848V0.75ZM15.8945 4.53809L15.8945 3.50992C13.9096 3.50998 12.5705 4.21507 11.3231 5.30338L11.999 6.07812L12.675 6.85287C13.6431 6.00821 14.5201 5.5663 15.8946 5.56625L15.8945 4.53809ZM11.999 6.07812L11.3186 5.30729L5.59987 10.3551L6.28027 11.126L6.96068 11.8968L12.6794 6.84896L11.999 6.07812ZM6.28027 11.126L5.60414 10.3514C4.98224 10.8943 4.49189 11.4681 4.16703 12.1543C3.84001 12.8451 3.71502 13.5771 3.715 14.3847L4.74316 14.3848L5.77133 14.3848C5.77135 13.7958 5.86105 13.3818 6.02564 13.0342C6.19238 12.6819 6.47057 12.3247 6.95641 11.9006L6.28027 11.126ZM4.74316 14.3848H3.715C3.715 15.1938 3.8404 15.918 4.16846 16.6051C4.49253 17.2838 4.9799 17.8535 5.59044 18.406L6.28027 17.6436L6.9701 16.8811C6.47283 16.4312 6.19165 16.0699 6.02412 15.7191C5.86058 15.3765 5.77133 14.9725 5.77133 14.3848H4.74316ZM6.28027 17.6436L5.5998 18.4143L11.3185 23.4632L11.999 22.6924L12.6795 21.9216L6.96075 16.8728L6.28027 17.6436ZM11.999 22.6924L11.309 23.4546C12.5773 24.6027 13.9239 25.2596 15.8945 25.2596L15.8945 24.2314L15.8946 23.2033C14.5059 23.2032 13.6362 22.7875 12.689 21.9301L11.999 22.6924ZM15.8945 24.2314V25.2596H34.7676V24.2314V23.2033H15.8945V24.2314ZM34.7676 24.2314H35.7957V20.293H34.7676H33.7394V24.2314H34.7676ZM34.7676 20.293V19.2648H11.6768V20.293V21.3211H34.7676V20.293ZM11.6768 20.293L11.6769 19.2648C10.78 19.2647 10.0604 18.545 10.0604 17.7148H9.03223H8.00406C8.00406 19.7497 9.71461 21.3209 11.6766 21.3211L11.6768 20.293ZM9.03223 17.7148H10.0604V11.0547H9.03223H8.00406V17.7148H9.03223ZM9.03223 11.0547H10.0604C10.0604 10.2248 10.7798 9.50484 11.6769 9.50473L11.6768 8.47656L11.6766 7.44839C9.71388 7.44863 8.00406 9.02053 8.00406 11.0547H9.03223ZM11.6768 8.47656V9.50473H34.7676V8.47656V7.44839H11.6768V8.47656ZM34.7676 8.47656H35.7957V4.53809H34.7676H33.7394V8.47656H34.7676ZM34.7676 4.53809V3.50992H15.8945V4.53809V5.56625H34.7676V4.53809ZM36.3428 24.2314V25.2596H40.6318V24.2314V23.2033H36.3428V24.2314ZM40.6318 24.2314H41.66V12.2012H40.6318H39.6037V24.2314H40.6318ZM40.6318 12.2012L39.9522 12.9727L42.919 15.586L43.5986 14.8145L44.2782 14.0429L41.3114 11.4296L40.6318 12.2012ZM43.5986 14.8145L42.9225 15.589C44.1702 16.6781 45.5095 17.3825 47.4941 17.3827L47.4941 16.3545L47.4942 15.3263C46.1196 15.3262 45.2425 14.8847 44.2748 14.0399L43.5986 14.8145ZM47.4941 16.3545V17.3827H62.0781V16.3545V15.3263H47.4941V16.3545ZM62.0781 16.3545H61.05V24.2314H62.0781H63.1063V16.3545H62.0781ZM62.0781 24.2314V25.2596H66.3672V24.2314V23.2033H62.0781V24.2314ZM66.3672 24.2314H67.3954V4.53809H66.3672H65.339V24.2314H66.3672ZM66.3672 4.53809V3.50992H62.0781V4.53809V5.56625H66.3672V4.53809ZM62.0781 4.53809H61.05V12.416H62.0781H63.1063V4.53809H62.0781ZM62.0781 12.416V11.3878H43.2764V12.416V13.4442H62.0781V12.416ZM43.2764 12.416L43.2766 11.3878C42.38 11.3877 41.6602 10.6678 41.66 9.8377L40.6318 9.83789L39.6037 9.83808C39.604 11.8724 41.3143 13.4438 43.2762 13.4442L43.2764 12.416ZM40.6318 9.83789H41.66V4.53809H40.6318H39.6037V9.83789H40.6318ZM40.6318 4.53809V3.50992H36.3428V4.53809V5.56625H40.6318V4.53809ZM36.3428 4.53809H35.3146V24.2314H36.3428H37.3709V4.53809H36.3428Z" fill="#38354F" mask="url(#path-1-inside-1_145_708)"/>
</svg>
